<svg viewBox="0 0 600 390" preserveAspectRatio="xMidYMid slice" xmlns="http://www.w3.org/2000/svg" aria-hidden="true"><rect x="-100" y="-100" width="900" height="800" fill="#52636c"/><path d="M-50 390L600 -40M100 510L750 80" stroke="#dfb699" stroke-width="100" opacity=".08"/><rect x="78" y="55" width="460" height="280" fill="#293b4c" rx="100" stroke="#ae9290" stroke-width="8"/><g transform="translate(165 93) rotate(-18 41 41)"><rect x="5" y="7" width="82" height="82" fill="#111d3060" rx="13"/><rect x="0" y="0" width="82" height="82" fill="#ebe3d5" rx="12" stroke="#bcab9c" stroke-width="2"/><circle cx="23" cy="23" r="6" fill="#46516a" /><circle cx="59" cy="23" r="6" fill="#46516a" /><circle cx="41" cy="41" r="6" fill="#46516a" /><circle cx="23" cy="59" r="6" fill="#46516a" /><circle cx="59" cy="59" r="6" fill="#46516a" /></g><g transform="translate(290 71) rotate(15 41 41)"><rect x="5" y="7" width="82" height="82" fill="#111d3060" rx="13"/><rect x="0" y="0" width="82" height="82" fill="#ebe3d5" rx="12" stroke="#bcab9c" stroke-width="2"/><circle cx="23" cy="20" r="6" fill="#46516a" /><circle cx="59" cy="20" r="6" fill="#46516a" /><circle cx="23" cy="41" r="6" fill="#46516a" /><circle cx="59" cy="41" r="6" fill="#46516a" /><circle cx="23" cy="62" r="6" fill="#46516a" /><circle cx="59" cy="62" r="6" fill="#46516a" /></g><g transform="translate(375 169) rotate(-12 41 41)"><rect x="5" y="7" width="82" height="82" fill="#111d3060" rx="13"/><rect x="0" y="0" width="82" height="82" fill="#ebe3d5" rx="12" stroke="#bcab9c" stroke-width="2"/><circle cx="23" cy="23" r="6" fill="#46516a" /><circle cx="59" cy="23" r="6" fill="#46516a" /><circle cx="23" cy="59" r="6" fill="#46516a" /><circle cx="59" cy="59" r="6" fill="#46516a" /></g><g transform="translate(221 210) rotate(18 41 41)"><rect x="5" y="7" width="82" height="82" fill="#111d3060" rx="13"/><rect x="0" y="0" width="82" height="82" fill="#ebe3d5" rx="12" stroke="#bcab9c" stroke-width="2"/><circle cx="23" cy="23" r="6" fill="#46516a" /><circle cx="41" cy="41" r="6" fill="#46516a" /><circle cx="59" cy="59" r="6" fill="#46516a" /></g><g transform="translate(91 232) rotate(-8 41 41)"><rect x="5" y="7" width="82" height="82" fill="#111d3060" rx="13"/><rect x="0" y="0" width="82" height="82" fill="#ebe3d5" rx="12" stroke="#bcab9c" stroke-width="2"/><circle cx="23" cy="23" r="6" fill="#46516a" /><circle cx="59" cy="59" r="6" fill="#46516a" /></g></svg>
